<svg width="516" height="516" viewBox="0 0 516 516" fill="none" xmlns="http://www.w3.org/2000/svg">
<mask id="path-1-inside-1_11330_7944" fill="white">
<path d="M258 0C400.49 9.90852e-05 516 115.51 516 258C516 400.49 400.49 516 258 516C115.51 516 4.57316e-05 400.49 0 258C0 115.51 115.51 0 258 0ZM400.802 293.841C394.825 287.125 385.417 287.461 379.787 294.591C342.284 342.095 318.457 371.716 259.471 371.716C200.484 371.716 176.658 342.095 139.154 294.591C133.525 287.461 124.116 287.125 118.14 293.841C112.163 300.557 111.881 311.782 117.511 318.913C160.398 373.237 191.954 429.764 259.471 429.764C326.987 429.763 358.543 373.237 401.431 318.913C407.06 311.782 406.778 300.557 400.802 293.841ZM442.024 200.867C421.42 163.776 375.784 151.067 340.095 172.481C304.406 193.896 292.177 241.326 312.782 278.418C315.339 283.021 318.908 286.515 323.149 289.199C323.249 289.262 323.38 289.196 323.396 289.076C325.753 272.288 335.213 256.744 350.447 247.603C376.871 231.748 410.658 241.158 425.913 268.619C429.857 275.718 432.176 283.329 432.99 290.986C433.006 291.13 433.181 291.185 433.274 291.075C453.983 266.782 458.498 230.521 442.024 200.867ZM191.22 180.75C162.08 150.465 114.834 150.465 85.6943 180.75C57.1283 210.439 56.5649 258.212 84.0059 288.613C84.1375 288.759 84.378 288.692 84.4248 288.496C87.9157 273.893 96.8907 260.726 110.419 252.608C136.842 236.754 170.63 246.164 185.886 273.626C188.661 278.623 190.633 283.873 191.841 289.214C191.885 289.407 192.12 289.47 192.255 289.325C220.354 258.962 220.01 210.672 191.22 180.75Z"/>
</mask>
<g filter="url(#filter0_iii_11330_7944)">
<path d="M258 0C400.49 9.90852e-05 516 115.51 516 258C516 400.49 400.49 516 258 516C115.51 516 4.57316e-05 400.49 0 258C0 115.51 115.51 0 258 0ZM400.802 293.841C394.825 287.125 385.417 287.461 379.787 294.591C342.284 342.095 318.457 371.716 259.471 371.716C200.484 371.716 176.658 342.095 139.154 294.591C133.525 287.461 124.116 287.125 118.14 293.841C112.163 300.557 111.881 311.782 117.511 318.913C160.398 373.237 191.954 429.764 259.471 429.764C326.987 429.763 358.543 373.237 401.431 318.913C407.06 311.782 406.778 300.557 400.802 293.841ZM442.024 200.867C421.42 163.776 375.784 151.067 340.095 172.481C304.406 193.896 292.177 241.326 312.782 278.418C315.339 283.021 318.908 286.515 323.149 289.199C323.249 289.262 323.38 289.196 323.396 289.076C325.753 272.288 335.213 256.744 350.447 247.603C376.871 231.748 410.658 241.158 425.913 268.619C429.857 275.718 432.176 283.329 432.99 290.986C433.006 291.13 433.181 291.185 433.274 291.075C453.983 266.782 458.498 230.521 442.024 200.867ZM191.22 180.75C162.08 150.465 114.834 150.465 85.6943 180.75C57.1283 210.439 56.5649 258.212 84.0059 288.613C84.1375 288.759 84.378 288.692 84.4248 288.496C87.9157 273.893 96.8907 260.726 110.419 252.608C136.842 236.754 170.63 246.164 185.886 273.626C188.661 278.623 190.633 283.873 191.841 289.214C191.885 289.407 192.12 289.47 192.255 289.325C220.354 258.962 220.01 210.672 191.22 180.75Z" fill="url(#paint0_linear_11330_7944)"/>
<path d="M258 0C400.49 9.90852e-05 516 115.51 516 258C516 400.49 400.49 516 258 516C115.51 516 4.57316e-05 400.49 0 258C0 115.51 115.51 0 258 0ZM400.802 293.841C394.825 287.125 385.417 287.461 379.787 294.591C342.284 342.095 318.457 371.716 259.471 371.716C200.484 371.716 176.658 342.095 139.154 294.591C133.525 287.461 124.116 287.125 118.14 293.841C112.163 300.557 111.881 311.782 117.511 318.913C160.398 373.237 191.954 429.764 259.471 429.764C326.987 429.763 358.543 373.237 401.431 318.913C407.06 311.782 406.778 300.557 400.802 293.841ZM442.024 200.867C421.42 163.776 375.784 151.067 340.095 172.481C304.406 193.896 292.177 241.326 312.782 278.418C315.339 283.021 318.908 286.515 323.149 289.199C323.249 289.262 323.38 289.196 323.396 289.076C325.753 272.288 335.213 256.744 350.447 247.603C376.871 231.748 410.658 241.158 425.913 268.619C429.857 275.718 432.176 283.329 432.99 290.986C433.006 291.13 433.181 291.185 433.274 291.075C453.983 266.782 458.498 230.521 442.024 200.867ZM191.22 180.75C162.08 150.465 114.834 150.465 85.6943 180.75C57.1283 210.439 56.5649 258.212 84.0059 288.613C84.1375 288.759 84.378 288.692 84.4248 288.496C87.9157 273.893 96.8907 260.726 110.419 252.608C136.842 236.754 170.63 246.164 185.886 273.626C188.661 278.623 190.633 283.873 191.841 289.214C191.885 289.407 192.12 289.47 192.255 289.325C220.354 258.962 220.01 210.672 191.22 180.75Z" fill="url(#paint1_radial_11330_7944)" fill-opacity="0.12"/>
<path d="M258 0C400.49 9.90852e-05 516 115.51 516 258C516 400.49 400.49 516 258 516C115.51 516 4.57316e-05 400.49 0 258C0 115.51 115.51 0 258 0ZM400.802 293.841C394.825 287.125 385.417 287.461 379.787 294.591C342.284 342.095 318.457 371.716 259.471 371.716C200.484 371.716 176.658 342.095 139.154 294.591C133.525 287.461 124.116 287.125 118.14 293.841C112.163 300.557 111.881 311.782 117.511 318.913C160.398 373.237 191.954 429.764 259.471 429.764C326.987 429.763 358.543 373.237 401.431 318.913C407.06 311.782 406.778 300.557 400.802 293.841ZM442.024 200.867C421.42 163.776 375.784 151.067 340.095 172.481C304.406 193.896 292.177 241.326 312.782 278.418C315.339 283.021 318.908 286.515 323.149 289.199C323.249 289.262 323.38 289.196 323.396 289.076C325.753 272.288 335.213 256.744 350.447 247.603C376.871 231.748 410.658 241.158 425.913 268.619C429.857 275.718 432.176 283.329 432.99 290.986C433.006 291.13 433.181 291.185 433.274 291.075C453.983 266.782 458.498 230.521 442.024 200.867ZM191.22 180.75C162.08 150.465 114.834 150.465 85.6943 180.75C57.1283 210.439 56.5649 258.212 84.0059 288.613C84.1375 288.759 84.378 288.692 84.4248 288.496C87.9157 273.893 96.8907 260.726 110.419 252.608C136.842 236.754 170.63 246.164 185.886 273.626C188.661 278.623 190.633 283.873 191.841 289.214C191.885 289.407 192.12 289.47 192.255 289.325C220.354 258.962 220.01 210.672 191.22 180.75Z" fill="url(#paint2_radial_11330_7944)" fill-opacity="0.1"/>
<path d="M258 0C400.49 9.90852e-05 516 115.51 516 258C516 400.49 400.49 516 258 516C115.51 516 4.57316e-05 400.49 0 258C0 115.51 115.51 0 258 0ZM400.802 293.841C394.825 287.125 385.417 287.461 379.787 294.591C342.284 342.095 318.457 371.716 259.471 371.716C200.484 371.716 176.658 342.095 139.154 294.591C133.525 287.461 124.116 287.125 118.14 293.841C112.163 300.557 111.881 311.782 117.511 318.913C160.398 373.237 191.954 429.764 259.471 429.764C326.987 429.763 358.543 373.237 401.431 318.913C407.06 311.782 406.778 300.557 400.802 293.841ZM442.024 200.867C421.42 163.776 375.784 151.067 340.095 172.481C304.406 193.896 292.177 241.326 312.782 278.418C315.339 283.021 318.908 286.515 323.149 289.199C323.249 289.262 323.38 289.196 323.396 289.076C325.753 272.288 335.213 256.744 350.447 247.603C376.871 231.748 410.658 241.158 425.913 268.619C429.857 275.718 432.176 283.329 432.99 290.986C433.006 291.13 433.181 291.185 433.274 291.075C453.983 266.782 458.498 230.521 442.024 200.867ZM191.22 180.75C162.08 150.465 114.834 150.465 85.6943 180.75C57.1283 210.439 56.5649 258.212 84.0059 288.613C84.1375 288.759 84.378 288.692 84.4248 288.496C87.9157 273.893 96.8907 260.726 110.419 252.608C136.842 236.754 170.63 246.164 185.886 273.626C188.661 278.623 190.633 283.873 191.841 289.214C191.885 289.407 192.12 289.47 192.255 289.325C220.354 258.962 220.01 210.672 191.22 180.75Z" fill="url(#paint3_radial_11330_7944)" fill-opacity="0.32"/>
<path d="M258 0C400.49 9.90852e-05 516 115.51 516 258C516 400.49 400.49 516 258 516C115.51 516 4.57316e-05 400.49 0 258C0 115.51 115.51 0 258 0ZM400.802 293.841C394.825 287.125 385.417 287.461 379.787 294.591C342.284 342.095 318.457 371.716 259.471 371.716C200.484 371.716 176.658 342.095 139.154 294.591C133.525 287.461 124.116 287.125 118.14 293.841C112.163 300.557 111.881 311.782 117.511 318.913C160.398 373.237 191.954 429.764 259.471 429.764C326.987 429.763 358.543 373.237 401.431 318.913C407.06 311.782 406.778 300.557 400.802 293.841ZM442.024 200.867C421.42 163.776 375.784 151.067 340.095 172.481C304.406 193.896 292.177 241.326 312.782 278.418C315.339 283.021 318.908 286.515 323.149 289.199C323.249 289.262 323.38 289.196 323.396 289.076C325.753 272.288 335.213 256.744 350.447 247.603C376.871 231.748 410.658 241.158 425.913 268.619C429.857 275.718 432.176 283.329 432.99 290.986C433.006 291.13 433.181 291.185 433.274 291.075C453.983 266.782 458.498 230.521 442.024 200.867ZM191.22 180.75C162.08 150.465 114.834 150.465 85.6943 180.75C57.1283 210.439 56.5649 258.212 84.0059 288.613C84.1375 288.759 84.378 288.692 84.4248 288.496C87.9157 273.893 96.8907 260.726 110.419 252.608C136.842 236.754 170.63 246.164 185.886 273.626C188.661 278.623 190.633 283.873 191.841 289.214C191.885 289.407 192.12 289.47 192.255 289.325C220.354 258.962 220.01 210.672 191.22 180.75Z" fill="url(#paint4_radial_11330_7944)" fill-opacity="0.32"/>
</g>
<path d="M258 0L258 -1.51588H258V0ZM516 258L517.516 258V258H516ZM258 516L258 517.516L258 517.516L258 516ZM0 258L-1.51588 258L-1.51588 258L0 258ZM400.802 293.841L401.934 292.833L401.934 292.833L400.802 293.841ZM379.787 294.591L378.597 293.651L378.597 293.652L379.787 294.591ZM259.471 371.716L259.471 373.232L259.471 373.232L259.471 371.716ZM139.154 294.591L140.344 293.652L140.344 293.651L139.154 294.591ZM118.14 293.841L117.007 292.833L117.007 292.833L118.14 293.841ZM117.511 318.913L118.701 317.974L118.701 317.974L117.511 318.913ZM259.471 429.764L259.471 431.28L259.471 431.28L259.471 429.764ZM401.431 318.913L402.62 319.852L402.62 319.852L401.431 318.913ZM442.024 200.867L443.35 200.131L443.35 200.131L442.024 200.867ZM340.095 172.481L339.315 171.182L339.315 171.182L340.095 172.481ZM312.782 278.418L311.457 279.154L311.457 279.154L312.782 278.418ZM323.149 289.199L322.339 290.48L322.344 290.484L323.149 289.199ZM323.396 289.076L321.895 288.865L321.895 288.865L323.396 289.076ZM350.447 247.603L349.667 246.303L349.667 246.303L350.447 247.603ZM425.913 268.619L427.238 267.883L427.238 267.883L425.913 268.619ZM432.99 290.986L434.498 290.826L434.498 290.826L432.99 290.986ZM433.274 291.075L434.428 292.059L434.428 292.059L433.274 291.075ZM191.22 180.75L192.312 179.699L192.312 179.699L191.22 180.75ZM85.6943 180.75L84.602 179.699L84.602 179.699L85.6943 180.75ZM84.0059 288.613L82.8806 289.629L82.881 289.629L84.0059 288.613ZM84.4248 288.496L82.9505 288.144L82.9505 288.144L84.4248 288.496ZM110.419 252.608L109.639 251.309L109.639 251.309L110.419 252.608ZM185.886 273.626L187.211 272.89L187.211 272.89L185.886 273.626ZM191.841 289.214L190.362 289.548L190.362 289.549L191.841 289.214ZM192.255 289.325L193.366 290.356L193.367 290.355L192.255 289.325ZM258 0L258 1.51588C399.652 1.51598 514.484 116.348 514.484 258H516H517.516C517.516 114.673 401.327 -1.51578 258 -1.51588L258 0ZM516 258L514.484 258C514.484 399.652 399.652 514.484 258 514.484L258 516L258 517.516C401.327 517.516 517.516 401.327 517.516 258L516 258ZM258 516V514.484C116.348 514.484 1.51593 399.652 1.51588 258L0 258L-1.51588 258C-1.51584 401.327 114.673 517.516 258 517.516V516ZM0 258H1.51588C1.51588 116.348 116.348 1.51588 258 1.51588V0V-1.51588C114.673 -1.51588 -1.51588 114.673 -1.51588 258H0ZM400.802 293.841L401.934 292.833C398.665 289.159 394.393 287.356 390.11 287.509C385.83 287.661 381.667 289.764 378.597 293.651L379.787 294.591L380.977 295.53C383.537 292.288 386.893 290.657 390.218 290.538C393.542 290.42 396.962 291.806 399.669 294.849L400.802 293.841ZM379.787 294.591L378.597 293.652C359.812 317.447 344.606 336.55 326.783 349.749C309.046 362.884 288.665 370.2 259.471 370.2L259.471 371.716L259.471 373.232C289.262 373.232 310.288 365.737 328.587 352.186C346.799 338.698 362.259 319.239 380.977 295.53L379.787 294.591ZM259.471 371.716L259.471 370.2C230.276 370.2 209.895 362.884 192.159 349.749C174.335 336.55 159.13 317.447 140.344 293.652L139.154 294.591L137.965 295.53C156.682 319.239 172.142 338.699 190.354 352.186C208.654 365.737 229.679 373.232 259.471 373.232L259.471 371.716ZM139.154 294.591L140.344 293.651C137.275 289.764 133.112 287.661 128.831 287.509C124.549 287.356 120.277 289.16 117.007 292.833L118.14 293.841L119.272 294.849C121.98 291.806 125.4 290.42 128.723 290.538C132.048 290.657 135.404 292.288 137.965 295.53L139.154 294.591ZM118.14 293.841L117.007 292.833C110.534 300.107 110.243 312.154 116.321 319.852L117.511 318.913L118.701 317.974C113.52 311.411 113.792 301.007 119.272 294.849L118.14 293.841ZM117.511 318.913L116.321 319.852C137.659 346.88 156.415 374.785 178.202 395.801C200.083 416.908 225.209 431.279 259.471 431.28L259.471 429.764L259.471 428.248C226.216 428.248 201.805 414.356 180.307 393.619C158.715 372.791 140.25 345.27 118.701 317.974L117.511 318.913ZM259.471 429.764L259.471 431.28C293.732 431.279 318.858 416.908 340.739 395.801C362.526 374.784 381.283 346.88 402.62 319.852L401.431 318.913L400.241 317.974C378.691 345.27 360.226 372.791 338.634 393.619C317.136 414.356 292.726 428.248 259.471 428.248L259.471 429.764ZM401.431 318.913L402.62 319.852C408.698 312.154 408.407 300.107 401.934 292.833L400.802 293.841L399.669 294.849C405.149 301.007 405.422 311.411 400.241 317.974L401.431 318.913ZM442.024 200.867L443.35 200.131C422.343 162.316 375.763 149.312 339.315 171.182L340.095 172.481L340.875 173.781C375.804 152.823 420.496 165.235 440.699 201.603L442.024 200.867ZM340.095 172.481L339.315 171.182C302.903 193.031 290.468 241.371 311.457 279.154L312.782 278.418L314.107 277.682C293.887 241.282 305.909 194.762 340.875 173.781L340.095 172.481ZM312.782 278.418L311.457 279.154C314.154 284.008 317.913 287.679 322.339 290.48L323.149 289.199L323.96 287.918C319.903 285.351 316.525 282.034 314.107 277.682L312.782 278.418ZM323.149 289.199L322.344 290.484C323.459 291.182 324.742 290.394 324.898 289.287L323.396 289.076L321.895 288.865C322.017 287.998 323.039 287.341 323.954 287.915L323.149 289.199ZM323.396 289.076L324.898 289.287C327.196 272.918 336.414 257.791 351.227 248.902L350.447 247.603L349.667 246.303C334.011 255.697 324.311 271.659 321.895 288.865L323.396 289.076ZM350.447 247.603L351.227 248.902C376.891 233.504 409.734 242.617 424.588 269.355L425.913 268.619L427.238 267.883C411.581 239.698 376.85 229.992 349.667 246.303L350.447 247.603ZM425.913 268.619L424.588 269.355C428.43 276.272 430.689 283.686 431.483 291.147L432.99 290.986L434.498 290.826C433.662 282.972 431.283 275.165 427.238 267.883L425.913 268.619ZM432.99 290.986L431.483 291.147C431.637 292.598 433.46 293.195 434.428 292.059L433.274 291.075L432.121 290.092C432.902 289.176 434.374 289.663 434.498 290.826L432.99 290.986ZM433.274 291.075L434.428 292.059C455.539 267.294 460.136 230.349 443.35 200.131L442.024 200.867L440.699 201.603C456.859 230.694 452.427 266.27 432.121 290.092L433.274 291.075ZM191.22 180.75L192.312 179.699C162.576 148.794 114.338 148.794 84.602 179.699L85.6943 180.75L86.7867 181.801C115.33 152.136 161.584 152.136 190.127 181.801L191.22 180.75ZM85.6943 180.75L84.602 179.699C55.4813 209.964 54.9092 258.64 82.8806 289.629L84.0059 288.613L85.1311 287.598C58.2207 257.784 58.7752 210.914 86.7867 181.801L85.6943 180.75ZM84.0059 288.613L82.881 289.629C83.8962 290.753 85.5918 290.134 85.8992 288.849L84.4248 288.496L82.9505 288.144C83.1643 287.249 84.3789 286.765 85.1307 287.597L84.0059 288.613ZM84.4248 288.496L85.8991 288.849C89.3021 274.613 98.0445 261.802 111.199 253.908L110.419 252.608L109.639 251.309C95.737 259.65 86.5292 273.173 82.9505 288.144L84.4248 288.496ZM110.419 252.608L111.199 253.908C136.863 238.509 169.707 247.624 184.561 274.362L185.886 273.626L187.211 272.89C171.553 244.704 136.822 234.998 109.639 251.309L110.419 252.608ZM185.886 273.626L184.561 274.362C187.265 279.231 189.186 284.345 190.362 289.548L191.841 289.214L193.319 288.879C192.08 283.4 190.058 278.015 187.211 272.89L185.886 273.626ZM191.841 289.214L190.362 289.549C190.675 290.931 192.403 291.394 193.366 290.356L192.255 289.325L191.144 288.294C191.838 287.546 193.094 287.883 193.319 288.879L191.841 289.214ZM192.255 289.325L193.367 290.355C222.01 259.405 221.661 210.201 192.312 179.699L191.22 180.75L190.127 181.801C218.359 211.142 218.698 258.52 191.142 288.296L192.255 289.325Z" fill="url(#paint5_linear_11330_7944)" mask="url(#path-1-inside-1_11330_7944)"/>
<path d="M258 0L258 -1.51588H258V0ZM516 258L517.516 258V258H516ZM258 516L258 517.516L258 517.516L258 516ZM0 258L-1.51588 258L-1.51588 258L0 258ZM400.802 293.841L401.934 292.833L401.934 292.833L400.802 293.841ZM379.787 294.591L378.597 293.651L378.597 293.652L379.787 294.591ZM259.471 371.716L259.471 373.232L259.471 373.232L259.471 371.716ZM139.154 294.591L140.344 293.652L140.344 293.651L139.154 294.591ZM118.14 293.841L117.007 292.833L117.007 292.833L118.14 293.841ZM117.511 318.913L118.701 317.974L118.701 317.974L117.511 318.913ZM259.471 429.764L259.471 431.28L259.471 431.28L259.471 429.764ZM401.431 318.913L402.62 319.852L402.62 319.852L401.431 318.913ZM442.024 200.867L443.35 200.131L443.35 200.131L442.024 200.867ZM340.095 172.481L339.315 171.182L339.315 171.182L340.095 172.481ZM312.782 278.418L311.457 279.154L311.457 279.154L312.782 278.418ZM323.149 289.199L322.339 290.48L322.344 290.484L323.149 289.199ZM323.396 289.076L321.895 288.865L321.895 288.865L323.396 289.076ZM350.447 247.603L349.667 246.303L349.667 246.303L350.447 247.603ZM425.913 268.619L427.238 267.883L427.238 267.883L425.913 268.619ZM432.99 290.986L434.498 290.826L434.498 290.826L432.99 290.986ZM433.274 291.075L434.428 292.059L434.428 292.059L433.274 291.075ZM191.22 180.75L192.312 179.699L192.312 179.699L191.22 180.75ZM85.6943 180.75L84.602 179.699L84.602 179.699L85.6943 180.75ZM84.0059 288.613L82.8806 289.629L82.881 289.629L84.0059 288.613ZM84.4248 288.496L82.9505 288.144L82.9505 288.144L84.4248 288.496ZM110.419 252.608L109.639 251.309L109.639 251.309L110.419 252.608ZM185.886 273.626L187.211 272.89L187.211 272.89L185.886 273.626ZM191.841 289.214L190.362 289.548L190.362 289.549L191.841 289.214ZM192.255 289.325L193.366 290.356L193.367 290.355L192.255 289.325ZM258 0L258 1.51588C399.652 1.51598 514.484 116.348 514.484 258H516H517.516C517.516 114.673 401.327 -1.51578 258 -1.51588L258 0ZM516 258L514.484 258C514.484 399.652 399.652 514.484 258 514.484L258 516L258 517.516C401.327 517.516 517.516 401.327 517.516 258L516 258ZM258 516V514.484C116.348 514.484 1.51593 399.652 1.51588 258L0 258L-1.51588 258C-1.51584 401.327 114.673 517.516 258 517.516V516ZM0 258H1.51588C1.51588 116.348 116.348 1.51588 258 1.51588V0V-1.51588C114.673 -1.51588 -1.51588 114.673 -1.51588 258H0ZM400.802 293.841L401.934 292.833C398.665 289.159 394.393 287.356 390.11 287.509C385.83 287.661 381.667 289.764 378.597 293.651L379.787 294.591L380.977 295.53C383.537 292.288 386.893 290.657 390.218 290.538C393.542 290.42 396.962 291.806 399.669 294.849L400.802 293.841ZM379.787 294.591L378.597 293.652C359.812 317.447 344.606 336.55 326.783 349.749C309.046 362.884 288.665 370.2 259.471 370.2L259.471 371.716L259.471 373.232C289.262 373.232 310.288 365.737 328.587 352.186C346.799 338.698 362.259 319.239 380.977 295.53L379.787 294.591ZM259.471 371.716L259.471 370.2C230.276 370.2 209.895 362.884 192.159 349.749C174.335 336.55 159.13 317.447 140.344 293.652L139.154 294.591L137.965 295.53C156.682 319.239 172.142 338.699 190.354 352.186C208.654 365.737 229.679 373.232 259.471 373.232L259.471 371.716ZM139.154 294.591L140.344 293.651C137.275 289.764 133.112 287.661 128.831 287.509C124.549 287.356 120.277 289.16 117.007 292.833L118.14 293.841L119.272 294.849C121.98 291.806 125.4 290.42 128.723 290.538C132.048 290.657 135.404 292.288 137.965 295.53L139.154 294.591ZM118.14 293.841L117.007 292.833C110.534 300.107 110.243 312.154 116.321 319.852L117.511 318.913L118.701 317.974C113.52 311.411 113.792 301.007 119.272 294.849L118.14 293.841ZM117.511 318.913L116.321 319.852C137.659 346.88 156.415 374.785 178.202 395.801C200.083 416.908 225.209 431.279 259.471 431.28L259.471 429.764L259.471 428.248C226.216 428.248 201.805 414.356 180.307 393.619C158.715 372.791 140.25 345.27 118.701 317.974L117.511 318.913ZM259.471 429.764L259.471 431.28C293.732 431.279 318.858 416.908 340.739 395.801C362.526 374.784 381.283 346.88 402.62 319.852L401.431 318.913L400.241 317.974C378.691 345.27 360.226 372.791 338.634 393.619C317.136 414.356 292.726 428.248 259.471 428.248L259.471 429.764ZM401.431 318.913L402.62 319.852C408.698 312.154 408.407 300.107 401.934 292.833L400.802 293.841L399.669 294.849C405.149 301.007 405.422 311.411 400.241 317.974L401.431 318.913ZM442.024 200.867L443.35 200.131C422.343 162.316 375.763 149.312 339.315 171.182L340.095 172.481L340.875 173.781C375.804 152.823 420.496 165.235 440.699 201.603L442.024 200.867ZM340.095 172.481L339.315 171.182C302.903 193.031 290.468 241.371 311.457 279.154L312.782 278.418L314.107 277.682C293.887 241.282 305.909 194.762 340.875 173.781L340.095 172.481ZM312.782 278.418L311.457 279.154C314.154 284.008 317.913 287.679 322.339 290.48L323.149 289.199L323.96 287.918C319.903 285.351 316.525 282.034 314.107 277.682L312.782 278.418ZM323.149 289.199L322.344 290.484C323.459 291.182 324.742 290.394 324.898 289.287L323.396 289.076L321.895 288.865C322.017 287.998 323.039 287.341 323.954 287.915L323.149 289.199ZM323.396 289.076L324.898 289.287C327.196 272.918 336.414 257.791 351.227 248.902L350.447 247.603L349.667 246.303C334.011 255.697 324.311 271.659 321.895 288.865L323.396 289.076ZM350.447 247.603L351.227 248.902C376.891 233.504 409.734 242.617 424.588 269.355L425.913 268.619L427.238 267.883C411.581 239.698 376.85 229.992 349.667 246.303L350.447 247.603ZM425.913 268.619L424.588 269.355C428.43 276.272 430.689 283.686 431.483 291.147L432.99 290.986L434.498 290.826C433.662 282.972 431.283 275.165 427.238 267.883L425.913 268.619ZM432.99 290.986L431.483 291.147C431.637 292.598 433.46 293.195 434.428 292.059L433.274 291.075L432.121 290.092C432.902 289.176 434.374 289.663 434.498 290.826L432.99 290.986ZM433.274 291.075L434.428 292.059C455.539 267.294 460.136 230.349 443.35 200.131L442.024 200.867L440.699 201.603C456.859 230.694 452.427 266.27 432.121 290.092L433.274 291.075ZM191.22 180.75L192.312 179.699C162.576 148.794 114.338 148.794 84.602 179.699L85.6943 180.75L86.7867 181.801C115.33 152.136 161.584 152.136 190.127 181.801L191.22 180.75ZM85.6943 180.75L84.602 179.699C55.4813 209.964 54.9092 258.64 82.8806 289.629L84.0059 288.613L85.1311 287.598C58.2207 257.784 58.7752 210.914 86.7867 181.801L85.6943 180.75ZM84.0059 288.613L82.881 289.629C83.8962 290.753 85.5918 290.134 85.8992 288.849L84.4248 288.496L82.9505 288.144C83.1643 287.249 84.3789 286.765 85.1307 287.597L84.0059 288.613ZM84.4248 288.496L85.8991 288.849C89.3021 274.613 98.0445 261.802 111.199 253.908L110.419 252.608L109.639 251.309C95.737 259.65 86.5292 273.173 82.9505 288.144L84.4248 288.496ZM110.419 252.608L111.199 253.908C136.863 238.509 169.707 247.624 184.561 274.362L185.886 273.626L187.211 272.89C171.553 244.704 136.822 234.998 109.639 251.309L110.419 252.608ZM185.886 273.626L184.561 274.362C187.265 279.231 189.186 284.345 190.362 289.548L191.841 289.214L193.319 288.879C192.08 283.4 190.058 278.015 187.211 272.89L185.886 273.626ZM191.841 289.214L190.362 289.549C190.675 290.931 192.403 291.394 193.366 290.356L192.255 289.325L191.144 288.294C191.838 287.546 193.094 287.883 193.319 288.879L191.841 289.214ZM192.255 289.325L193.367 290.355C222.01 259.405 221.661 210.201 192.312 179.699L191.22 180.75L190.127 181.801C218.359 211.142 218.698 258.52 191.142 288.296L192.255 289.325Z" fill="white" fill-opacity="0.25" mask="url(#path-1-inside-1_11330_7944)"/>
<defs>
<filter id="filter0_iii_11330_7944" x="0" y="-1.62485" width="516" height="523.275" filterUnits="userSpaceOnUse" color-interpolation-filters="sRGB">
<feFlood flood-opacity="0" result="BackgroundImageFix"/>
<feBlend mode="normal" in="SourceGraphic" in2="BackgroundImageFix" result="shape"/>
<feColorMatrix in="SourceAlpha" type="matrix" values="0 0 0 0 0 0 0 0 0 0 0 0 0 0 0 0 0 0 127 0" result="hardAlpha"/>
<feOffset dy="5.68698"/>
<feGaussianBlur stdDeviation="2.82506"/>
<feComposite in2="hardAlpha" operator="arithmetic" k2="-1" k3="1"/>
<feColorMatrix type="matrix" values="0 0 0 0 1 0 0 0 0 1 0 0 0 0 1 0 0 0 1 0"/>
<feBlend mode="normal" in2="shape" result="effect1_innerShadow_11330_7944"/>
<feColorMatrix in="SourceAlpha" type="matrix" values="0 0 0 0 0 0 0 0 0 0 0 0 0 0 0 0 0 0 127 0" result="hardAlpha"/>
<feOffset dy="-3.24971"/>
<feGaussianBlur stdDeviation="0.812426"/>
<feComposite in2="hardAlpha" operator="arithmetic" k2="-1" k3="1"/>
<feColorMatrix type="matrix" values="0 0 0 0 1 0 0 0 0 1 0 0 0 0 1 0 0 0 0.25 0"/>
<feBlend mode="normal" in2="effect1_innerShadow_11330_7944" result="effect2_innerShadow_11330_7944"/>
<feColorMatrix in="SourceAlpha" type="matrix" values="0 0 0 0 0 0 0 0 0 0 0 0 0 0 0 0 0 0 127 0" result="hardAlpha"/>
<feOffset dy="17.1434"/>
<feGaussianBlur stdDeviation="2.10533"/>
<feComposite in2="hardAlpha" operator="arithmetic" k2="-1" k3="1"/>
<feColorMatrix type="matrix" values="0 0 0 0 1 0 0 0 0 1 0 0 0 0 1 0 0 0 1 0"/>
<feBlend mode="normal" in2="effect2_innerShadow_11330_7944" result="effect3_innerShadow_11330_7944"/>
</filter>
<linearGradient id="paint0_linear_11330_7944" x1="258" y1="0" x2="258" y2="516" gradientUnits="userSpaceOnUse">
<stop offset="0.05" stop-color="#E7E7E7"/>
<stop offset="0.6" stop-color="#7B7B7B"/>
</linearGradient>
<radialGradient id="paint1_radial_11330_7944" cx="0" cy="0" r="1" gradientTransform="matrix(17.7772 70.1445 -254.754 68.5333 232.553 50.1789)" gradientUnits="userSpaceOnUse">
<stop stop-color="white"/>
<stop offset="0.581272" stop-color="white" stop-opacity="0"/>
<stop offset="1" stop-color="white" stop-opacity="0"/>
</radialGradient>
<radialGradient id="paint2_radial_11330_7944" cx="0" cy="0" r="1" gradientTransform="matrix(-0.0524632 77.1132 -225.297 -0.162702 257.948 61.1359)" gradientUnits="userSpaceOnUse">
<stop stop-color="white"/>
<stop offset="1" stop-color="white" stop-opacity="0"/>
</radialGradient>
<radialGradient id="paint3_radial_11330_7944" cx="0" cy="0" r="1" gradientTransform="matrix(11.3471 35.4619 -61.6573 20.9421 137.615 263.34)" gradientUnits="userSpaceOnUse">
<stop stop-color="white"/>
<stop offset="1" stop-color="white" stop-opacity="0"/>
</radialGradient>
<radialGradient id="paint4_radial_11330_7944" cx="0" cy="0" r="1" gradientTransform="matrix(2.64766 38.9692 -79.6812 5.74658 378.553 258.274)" gradientUnits="userSpaceOnUse">
<stop stop-color="white"/>
<stop offset="1" stop-color="white" stop-opacity="0"/>
</radialGradient>
<linearGradient id="paint5_linear_11330_7944" x1="258" y1="0" x2="258" y2="516" gradientUnits="userSpaceOnUse">
<stop stop-color="white"/>
<stop offset="1" stop-color="#525053"/>
</linearGradient>
</defs>
</svg>
