<svg xmlns="http://www.w3.org/2000/svg" width="516" height="516" fill="none" viewBox="0 0 516 516"><path fill="#e8e8e8" d="M258 0c142.49 0 258 115.51 258 258S400.49 516 258 516 0 400.49 0 258 115.51 0 258 0m142.802 293.841c-5.977-6.716-15.385-6.38-21.015.75-37.504 47.504-61.33 77.125-120.316 77.125s-82.813-29.621-120.317-77.125c-5.629-7.131-15.038-7.466-21.014-.75-5.977 6.716-6.259 17.941-.629 25.072 42.887 54.324 74.443 110.851 141.96 110.851 67.516 0 99.072-56.527 141.96-110.851 5.629-7.131 5.347-18.356-.629-25.072m41.221-92.974c-20.605-37.091-66.24-49.8-101.928-28.386-35.689 21.415-47.918 68.846-27.313 105.938 2.557 4.603 6.125 8.096 10.366 10.78.1.063.231-.002.248-.122 2.357-16.788 11.817-32.332 27.051-41.473 26.424-15.855 60.21-6.447 75.466 21.015a58.8 58.8 0 0 1 7.077 22.367.16.16 0 0 0 .283.089c20.709-24.293 25.224-60.554 8.75-90.208M191.22 180.75c-29.14-30.285-76.387-30.285-105.527 0-28.566 29.689-29.127 77.462-1.686 107.863.131.146.37.079.418-.116 3.49-14.603 12.466-27.77 25.994-35.888 26.423-15.855 60.211-6.446 75.467 21.016a58.8 58.8 0 0 1 5.954 15.589.24.24 0 0 0 .414.11c28.099-30.363 27.756-78.652-1.034-108.574"/></svg>