<svg xmlns="http://www.w3.org/2000/svg" width="516" height="516" fill="none" viewBox="0 0 516 516"><path fill="#0c0a0c" d="M258 0c142.49 0 258 115.51 258 258S400.49 516 258 516 0 400.49 0 258 115.51 0 258 0m142.802 293.841c-5.977-6.716-15.385-6.38-21.015.75-37.504 47.504-61.33 77.125-120.316 77.125s-82.813-29.621-120.317-77.125c-5.629-7.131-15.038-7.466-21.014-.75-5.977 6.716-6.259 17.941-.629 25.072 42.887 54.324 74.443 110.851 141.96 110.851 67.516 0 99.072-56.527 141.96-110.851 5.629-7.131 5.347-18.356-.629-25.072m41.221-92.974c-20.605-37.091-66.239-49.799-101.928-28.385-35.689 21.415-47.918 68.844-27.314 105.936 2.557 4.603 6.127 8.097 10.368 10.781.1.063.231-.002.247-.122 2.357-16.788 11.816-32.333 27.05-41.474 26.424-15.855 60.211-6.446 75.467 21.016a58.8 58.8 0 0 1 7.077 22.367.16.16 0 0 0 .283.089c20.709-24.293 25.224-60.554 8.75-90.208M191.219 180.75c-29.14-30.285-76.386-30.285-105.526 0-28.566 29.689-29.128 77.463-1.686 107.864.132.146.371.079.418-.117 3.49-14.603 12.466-27.77 25.994-35.888 26.423-15.855 60.211-6.446 75.467 21.016a58.8 58.8 0 0 1 5.954 15.589.24.24 0 0 0 .414.111c28.099-30.363 27.755-78.653-1.035-108.575"/></svg>