<svg xmlns="http://www.w3.org/2000/svg" width="1308" height="260" fill="none" viewBox="0 0 1308 260"><path fill="#e8e8e8" d="M1289.74 214.674c-4.66 0-8.24-1.401-10.72-4.203-2.49-2.801-3.74-6.692-3.74-11.673v-85.682c0-5.136 1.25-9.027 3.74-11.673 2.48-2.802 6.06-4.202 10.72-4.202 4.67 0 8.24 1.4 10.73 4.202 2.64 2.646 3.97 6.537 3.97 11.673v85.682c0 4.981-1.25 8.872-3.74 11.673-2.48 2.802-6.14 4.203-10.96 4.203m0-139.146c-5.44 0-9.71-1.323-12.82-3.969-2.96-2.801-4.43-6.614-4.43-11.44 0-4.98 1.47-8.793 4.43-11.44 3.11-2.645 7.38-3.968 12.82-3.968 5.6 0 9.88 1.323 12.83 3.969s4.43 6.46 4.43 11.44c0 4.825-1.48 8.638-4.43 11.44-2.95 2.645-7.23 3.968-12.83 3.968m-110.16 138.455c-4.67 0-8.24-1.245-10.73-3.736-2.49-2.645-3.73-6.381-3.73-11.206V60.363c0-4.825 1.24-8.483 3.73-10.973s6.06-3.736 10.73-3.736c4.66 0 8.24 1.246 10.72 3.736 2.65 2.49 3.97 6.148 3.97 10.973v86.148h.46l38.48-40.623c3.11-3.112 5.83-5.525 8.17-7.237 2.33-1.712 5.51-2.568 9.56-2.568q6.06 0 9.09 3.269 3.27 3.034 3.27 7.47 0 4.437-4.2 8.872l-40.58 42.958v-12.141l44.54 48.094c2.8 2.958 4.05 5.993 3.73 9.105-.15 2.958-1.39 5.448-3.73 7.471-2.33 1.868-5.28 2.802-8.86 2.802-4.35 0-7.85-.856-10.49-2.568q-3.735-2.568-8.4-7.705l-40.58-42.49h-.46v37.821c0 9.961-4.9 14.942-14.69 14.942m-62.43.468c-11.97 0-22.38-2.413-31.25-7.238q-13.29-7.47-20.52-21.012-7.23-13.54-7.23-31.751c0-9.183 1.32-17.354 3.97-24.514 2.79-7.315 6.76-13.463 11.89-18.444q7.695-7.704 18.66-11.673c7.3-2.801 15.47-4.202 24.48-4.202q7.695 0 16.56 2.101a56.2 56.2 0 0 1 17.02 7.004c2.49 1.556 4.12 3.424 4.9 5.603s.93 4.436.47 6.771q-.705 3.268-3.03 5.836-2.1 2.335-5.37 3.035-3.255.468-7.23-1.634c-3.42-2.023-6.91-3.502-10.49-4.436q-5.37-1.634-10.26-1.634-7.695 0-13.53 2.568a26.7 26.7 0 0 0-10.03 7.004q-3.96 4.436-6.06 11.206t-2.1 15.643q0 17.275 8.16 27.315c5.6 6.537 13.45 9.806 23.56 9.806 3.26 0 6.61-.467 10.03-1.401 3.57-.934 7.15-2.413 10.72-4.436 2.65-1.401 4.98-1.868 7-1.401 2.18.467 3.96 1.557 5.36 3.269 1.4 1.556 2.26 3.502 2.57 5.836q.465 3.268-.93 6.537c-.78 2.179-2.34 3.969-4.67 5.37q-7.695 4.67-16.32 6.771c-5.75 1.4-11.2 2.101-16.33 2.101"/><path fill="#e8e8e8" fill-rule="evenodd" d="M966.244 209.781q9.795 4.67 22.155 4.67 9.33 0 16.561-3.269c4.82-2.179 8.78-5.214 11.89-9.105a31 31 0 0 0 2.48-3.553c.54-.901 2.18-.532 2.18.518 0 4.825 1.17 8.56 3.5 11.206q3.735 3.736 10.26 3.736c4.36 0 7.7-1.245 10.03-3.736 2.33-2.646 3.5-6.381 3.5-11.206V143.01c0-10.895-1.79-19.766-5.36-26.615-3.58-7.004-9.02-12.218-16.33-15.642q-10.723-5.136-27.517-5.136-8.163 0-18.19 1.868-9.795 1.868-20.522 6.303-4.431 1.635-6.297 5.136-1.866 3.269-1.866 6.771t1.866 6.537q1.866 2.802 5.131 3.735 3.498.934 7.929-1.167 8.629-3.97 16.324-5.603 7.929-1.634 14.692-1.634c8.08 0 13.84 1.712 17.26 5.136q5.13 5.136 5.13 16.809c0 2.708-2.2 4.903-4.91 4.903h-3.25q-24.725 0-39.416 3.269-14.692 3.268-21.222 10.739-6.53 7.237-6.53 19.845 0 10.272 5.364 18.443 5.597 8.172 15.158 13.074m54.806-43.424c0-2.837-2.3-5.136-5.14-5.136h-2.79q-14.46 0-23.089 1.4-8.628 1.401-12.36 4.903c-2.332 2.179-2.575 5.292-2.575 9.339q0 7.704 5.364 12.607c3.576 3.268 7.628 4.903 14.002 4.903q7.695 0 13.528-3.502c4.04-2.491 7.23-5.837 9.56-10.039 2.33-4.203 3.5-9.028 3.5-14.475" clip-rule="evenodd"/><path fill="#e8e8e8" d="M809.904 213.983q-6.762 0-10.494-3.736-3.498-3.735-3.498-10.739V60.596q0-7.237 3.498-10.973 3.732-3.969 9.562-3.969 5.362 0 7.929 2.102 2.798 1.868 6.529 6.537l89.318 116.032h-6.063V59.895q0-6.77 3.498-10.505 3.73-3.736 10.494-3.736t10.261 3.736q3.498 3.735 3.498 10.506v140.079q0 6.537-3.265 10.272-3.264 3.736-8.861 3.736-5.364 0-8.629-2.101-3.032-2.101-6.763-6.771L817.833 89.079h5.831v110.429q0 7.004-3.499 10.739t-10.261 3.736m-101.811-.233q-6.996 0-10.727-4.203-3.732-4.202-3.732-11.673v-85.682q0-7.704 3.732-11.673 3.73-4.202 10.727-4.202t10.728 4.202q3.964 3.969 3.964 11.673v85.682q0 7.471-3.731 11.673-3.731 4.203-10.961 4.203m0-139.145q-8.162 0-12.826-3.97-4.431-4.201-4.431-11.44 0-7.47 4.431-11.439 4.664-3.969 12.826-3.969 8.395 0 12.826 3.969 4.431 3.97 4.431 11.44 0 7.237-4.431 11.44-4.43 3.969-12.826 3.969m-111.09 139.378q-6.996 0-10.727-3.736-3.732-3.968-3.732-11.206V60.363q0-7.238 3.732-10.973 3.73-3.736 10.727-3.736t10.727 3.736q3.965 3.735 3.965 10.973v65.462c0 7.492 9.131 11.162 14.316 5.754l24.629-25.691q4.664-4.668 8.163-7.237 3.498-2.568 9.561-2.568t9.095 3.269q3.265 3.034 3.265 7.47 0 4.437-4.198 8.872l-29.576 31.268a8.313 8.313 0 0 0-.06 11.363l33.601 36.28q4.197 4.437 3.731 9.105-.233 4.437-3.731 7.471-3.498 2.802-8.862 2.802-6.53 0-10.494-2.568-3.732-2.568-8.396-7.705l-26.749-27.692c-5.195-5.378-14.295-1.7-14.295 5.777v17.246q0 14.942-14.692 14.942m-62.423.468q-17.956 0-31.249-7.238-13.293-7.47-20.522-21.012-7.23-13.54-7.23-31.751 0-13.774 3.965-24.514 4.197-10.972 11.893-18.444 7.697-7.704 18.657-11.673 10.96-4.202 24.486-4.202 7.696 0 16.558 2.101a56.2 56.2 0 0 1 17.024 7.004q3.731 2.334 4.897 5.603t.467 6.771q-.7 3.268-3.032 5.836-2.098 2.335-5.364 3.035-3.264.468-7.229-1.634-5.132-3.035-10.494-4.436-5.365-1.634-10.261-1.634-7.697 0-13.526 2.568a26.6 26.6 0 0 0-10.028 7.004q-3.964 4.436-6.064 11.206-2.098 6.77-2.098 15.643 0 17.275 8.162 27.315 8.395 9.806 23.554 9.806 4.897 0 10.027-1.401 5.364-1.401 10.728-4.436 3.965-2.102 6.996-1.401 3.266.7 5.364 3.269 2.099 2.335 2.565 5.836.466 3.268-.933 6.537-1.166 3.268-4.664 5.37a57.6 57.6 0 0 1-16.324 6.771q-8.629 2.1-16.325 2.101"/><path fill="#e8e8e8" fill-rule="evenodd" d="M314.143 211.414q3.498 2.568 9.095 2.568 6.063 0 9.328-3.035t6.296-9.806l9.318-22.009a8.32 8.32 0 0 1 7.657-5.073h69.215a8.32 8.32 0 0 1 7.639 5.03l9.482 22.052q2.798 6.537 6.296 9.806 3.732 3.035 10.261 3.035 5.364 0 8.629-2.335 3.265-2.567 3.964-7.004.7-4.435-1.865-9.805l-61.8-136.577a35 35 0 0 0-.384-.831q-2.925-6.115-7.078-8.742-.525-.379-1.068-.71-3.8-2.325-8.494-2.325h-.038q-.68.002-1.343.048-4.77.332-8.647 2.987-.524.35-1.031.763-3.546 2.886-6.198 8.81L311.81 194.838q-2.331 5.37-1.632 9.805.7 4.203 3.965 6.771m93.606-61.168c5.962 0 9.987-6.09 7.649-11.575l-17.329-40.652c-2.876-6.749-12.447-6.736-15.306.021l-17.196 40.652c-2.319 5.482 1.705 11.554 7.657 11.554z" clip-rule="evenodd"/><path fill="#e8e8e8" d="M133.501 0c73.73 0 133.501 58.014 133.501 129.577 0 71.564-59.771 129.577-133.501 129.577S.001 201.141 0 129.577C0 58.014 59.77 0 133.501 0m73.892 147.578c-3.093-3.373-7.961-3.204-10.874.377-19.406 23.858-31.736 38.735-62.258 38.735s-42.851-14.877-62.257-38.735c-2.913-3.581-7.782-3.75-10.874-.377s-3.238 9.011-.325 12.592c22.191 27.283 38.52 55.673 73.456 55.674s51.265-28.391 73.457-55.674c2.912-3.581 2.767-9.219-.325-12.592m21.33-46.695c-10.662-18.629-34.276-25.011-52.744-14.256-18.466 10.755-24.794 34.576-14.132 53.205 1.323 2.312 3.17 4.066 5.364 5.414a.085.085 0 0 0 .128-.061c1.219-8.432 6.114-16.238 13.997-20.83 13.673-7.962 31.156-3.237 39.05 10.555a28.9 28.9 0 0 1 3.661 11.229.085.085 0 0 0 .148.047c10.715-12.201 13.051-30.411 4.528-45.303M98.947 90.78c-15.078-15.21-39.525-15.211-54.603 0-14.78 14.91-15.073 38.903-.875 54.171a.128.128 0 0 0 .218-.056c1.806-7.334 6.45-13.948 13.45-18.025 13.672-7.963 31.156-3.237 39.05 10.555a29 29 0 0 1 3.079 7.823.128.128 0 0 0 .216.059c14.539-15.25 14.362-39.499-.535-54.527"/></svg>